PathFileType	4	(X/Y/Z)	Patient4_TMGait_0pt3_01_right_23.trc.trc
DataRate	CameraRate	NumFrames	NumMarkers	Units	OrigDataRate	OrigDataStartFrame	OrigNumFrames
55.118110236220	55.118110236220	7	33	mm	55.118110236220	1	       141
Frame#	Time	Sacral			L.Shoulder			Chest			R.Shoulder			Neck			R.ASIS			L.ASIS			R.Thigh.Superior			R.Thigh.Lateral			R.Thigh.Inferior			R.Patella			L.Thigh.Superior			L.Thigh.Lateral			L.Thigh.Inferior			L.Patella			L.Shank.Superior			L.Shank.Lateral			L.Shank.Inferior			R.Shank.Superior			R.Shank.Lateral			R.Shank.Inferior			R.Heel			R.Midfoot.Superior			R.Midfoot.Lateral			R.Toe			L.Heel			L.Midfoot.Lateral			L.Midfoot.Superior			L.Toe			L.Elbow			L.Wrist			R.Elbow			R.Wrist			
		X1	Y1	Z1	X2	Y2	Z2	X3	Y3	Z3	X4	Y4	Z4	X5	Y5	Z5	X6	Y6	Z6	X7	Y7	Z7	X8	Y8	Z8	X9	Y9	Z9	X10	Y10	Z10	X11	Y11	Z11	X12	Y12	Z12	X13	Y13	Z13	X14	Y14	Z14	X15	Y15	Z15	X16	Y16	Z16	X17	Y17	Z17	X18	Y18	Z18	X19	Y19	Z19	X20	Y20	Z20	X21	Y21	Z21	X22	Y22	Z22	X23	Y23	Z23	X24	Y24	Z24	X25	Y25	Z25	X26	Y26	Z26	X27	Y27	Z27	X28	Y28	Z28	X29	Y29	Z29	X30	Y30	Z30	X31	Y31	Z31	X32	Y32	Z32	X33	Y33	Z33	

1	42.240000000000	753.708227770268	1000.391885451859	458.532709183095	950.304930188892	1429.396123844552	292.821573469398	1048.433822290474	1350.310372646711	452.285286940659	966.452465582760	1421.312764291716	627.401853491760	935.137339908954	1485.541988522827	452.929321136502	976.932598171361	928.824909232536	578.865621796448	972.106430988901	951.048143751610	306.069273804445	1000.934727079715	721.834829725946	568.343022175367	909.500928163536	623.270258534883	637.040893785334	986.094192035000	553.945651072308	567.419420426318	967.410427506284	449.323655736633	592.582991460237	1029.638854970377	747.041045773969	352.113333450521	954.364873941207	619.138498138875	296.395261370352	1041.543591310906	550.416707749979	368.482207523678	1045.979097379262	475.291902405578	379.159423168904	1005.344204037507	402.175671261513	374.157676723582	902.527166776991	299.685730490837	324.350840026552	931.488866056966	185.535065297311	399.449097488518	887.392340627109	387.450655276117	599.765731688410	764.846128322122	353.844536398565	659.609551326299	750.010499929066	242.511423892122	614.018479174368	545.301791923864	176.402882114057	584.312802713583	714.219349504720	123.741184929861	628.927410314125	604.128699192251	118.812088141346	658.929064345099	784.372032253485	31.566656540404	656.905176290682	783.334734739348	40.798950705483	439.006413061085	858.014379638244	37.436634533543	359.853633953379	942.920661248694	95.820217929443	388.224435464692	1069.897713744605	39.405435445594	358.510713567378	934.911491448336	1097.648360572328	129.865781160935	1050.494751397040	861.181251869720	126.021693181059	1007.380159093957	1072.859695884406	744.657549177856	1152.960643709211	862.373948629299	799.057205972138	
2	42.258142857143	752.137331168277	999.379185540494	455.115009760033	952.907665273888	1428.366654367680	292.368080737766	1048.395974467730	1348.607796465695	452.983978878878	964.044123205905	1419.204972600725	627.248372335281	935.900139754198	1484.339314707546	452.592010132086	975.062830270963	928.351943341397	577.797371391621	972.076999243611	949.915132315141	304.703535174890	1005.103165676130	723.815053145050	566.138737786875	917.539637770530	622.824395691668	634.817534286669	996.318054531580	555.693855802519	565.145289948974	979.913030821852	449.652096834282	590.703105845672	1029.024303091415	745.527761320730	350.457019127346	952.928312082352	617.852205861044	295.184456030835	1039.645020952431	548.903502286839	367.754756460335	1043.662167505082	473.830674801095	378.841493731900	1002.465269897114	400.802508811525	373.812581022654	899.100612160398	298.951462544411	323.762481613672	926.687780963079	184.803893769241	399.276865239472	898.414534474470	387.988214482423	597.651645538072	774.501861652403	357.882478396477	656.680556366052	756.919147231001	247.068323132699	611.466337302208	551.437342199737	187.854413539153	580.310359724547	717.957487667744	129.562564662457	626.984081649535	607.498811308964	128.693601553915	655.836845432003	783.650502651549	31.520097145352	656.200329006528	777.598810416242	40.684280736910	438.775560334276	852.332259394489	37.281126944609	359.668336607077	937.235403190682	95.685940698774	388.132434724172	1064.240723652569	39.389694013694	358.445979353576	945.911377730286	1097.726221774302	127.512059974838	1070.786941599414	866.623895671464	124.591068664009	985.121021094986	1069.006626522468	740.301791112749	1112.027577890438	849.409310236666	792.417242110970	
3	42.276285714286	750.531178789057	998.534198914449	451.745940206779	955.599400740211	1427.481247435630	291.989484900092	1048.339793145164	1347.062057705066	453.802394655469	961.518647804692	1417.277101589709	627.144249535347	936.661787174181	1483.281288036039	452.305233926203	973.042331053667	928.032287800834	576.814313945693	972.041794851684	948.899738712309	303.451914823530	1009.197046461007	726.139949513393	563.977027324571	925.660393588432	622.702264543103	632.657879950760	1006.600073942120	557.865127165641	562.889756310582	992.625788530595	450.410543420827	588.792897173026	1028.255958875959	744.040499753450	348.898261367793	951.283143142504	616.661774996442	294.055216021127	1037.461412028370	547.434559464575	367.115851481984	1041.025483944236	472.446776515834	378.615373515920	999.298593380917	399.520729904503	373.526768943168	895.448776395263	298.261815946284	323.201559886541	921.723042492958	184.119182543908	399.118747848035	909.751630164174	388.811047802274	595.502725293526	784.475666519082	361.870843833773	653.695198169824	764.398916791053	251.488809194070	608.802407708013	558.091246288131	198.517854732501	576.226708794210	722.538411961294	135.109504549810	624.816458934770	611.669373811764	137.918161308612	652.611033589040	784.225554261205	31.596414233952	655.221266656816	771.749650347099	40.568321405587	438.543211875315	846.541139575215	37.126432114871	359.481214440044	931.439045971414	95.558358646666	388.035156880956	1058.473367359526	39.375455194633	358.381898813255	957.120773432637	1098.029153386831	125.251973078122	1091.575809985485	872.648278499038	123.388242562489	962.517678191706	1065.653702880693	735.823600271695	1070.421493593730	837.243069035720	785.289709108359	
4	42.294428571429	748.918536779715	997.985044915970	448.534501068495	958.371780748705	1426.845693124627	291.748550405194	1048.258736657007	1345.805169999522	454.796564049612	958.877045286657	1415.695626974289	627.115989308979	937.405694419978	1482.482622712115	452.109409713975	970.839193192195	927.969959424042	576.006894091411	972.002024926124	948.097640641822	302.428999372552	1013.038910920239	728.927396535364	561.958486679382	933.631173230369	623.081652929414	630.664726838299	1016.629137377354	560.611208973092	560.743029680053	1005.245520133611	451.822576462055	586.919011656612	1027.251370762566	742.635441379994	347.548362942806	949.334469721865	615.666460011023	293.072285166383	1034.854827950277	546.080785830189	366.625289231867	1037.917666615824	471.228275118087	378.523250571784	995.738195334049	398.426470035978	373.326416328458	891.517730856961	297.664340551206	322.689723118424	916.620360196444	183.531638319798	398.982206730530	921.242170674876	390.049368711883	593.395275644336	794.696646002664	365.613256564359	650.752344191819	772.648614298021	255.526637716749	606.098467413535	565.551245495161	207.513192320036	572.201846626696	728.461218268958	140.032101278997	622.434582686117	617.163462690667	145.769684620896	649.342202036828	786.989905155454	31.870257537121	653.920731188293	765.876699382971	40.454490459944	438.315537464417	840.730150181680	36.979222878520	359.294552497948	925.620171347588	95.445056033178	387.931110835281	1052.684307607557	39.364437728903	358.321446704113	968.359735962208	1098.678777714760	123.215252595343	1112.557955486185	879.452371376222	122.598554074335	940.020674827625	1063.193374467779	731.279839636406	1028.991411712539	826.685198717704	777.652251809135	
5	42.312571428571	747.325163955479	997.846533956382	445.555052159385	961.236593735479	1426.549923806238	291.702257328749	1048.150589878264	1344.947485409826	456.021404026839	956.114461970660	1414.605226273617	627.182447224438	938.124191515658	1482.042023857461	452.037633856540	968.428241529843	928.263689718573	575.458410618977	971.966582018889	947.593214548448	301.735672816912	1016.472293936689	732.272138092509	560.174925997392	941.242022112372	624.105386612169	628.926912043604	1026.129829663902	564.048385969793	558.788017665477	1017.502944976724	454.078374329074	585.154974171923	1025.926631324412	741.357192128595	346.503965502404	946.981669614000	614.955930377946	292.281044339569	1031.679157825675	544.902979112263	366.326993038710	1034.173868897558	470.251449496330	378.590217412620	991.663629414891	397.605285033046	373.222239845000	887.233803922334	297.200036960509	322.237140393927	911.377181954457	183.086517841209	398.869394922684	932.761947230724	391.804894398279	591.411187770537	805.144929069415	368.902603836382	647.963154539707	781.907573638351	258.938792206451	603.447124742432	574.185153332672	214.022589162952	568.385034907935	736.255614157366	144.012081180726	619.904137060967	624.544399131720	151.595116251845	646.148394568549	792.814143396353	32.370218251741	652.321014463757	760.035846992717	40.345413856002	438.096958811928	834.955443246401	36.843995300174	359.109963890828	919.834330772114	95.352338415144	387.818004565018	1046.929926368532	39.358766187558	358.267279446003	979.506710640210	1099.780848456109	121.514350586572	1133.510981229429	887.237472401273	122.389089942991	917.980919200632	1061.953008485417	726.711327932042	988.424765828173	818.395007094909	769.517385779830	
6	42.330714285714	745.774609253727	998.204874398433	442.844648573764	964.218839684751	1426.655043426152	291.896791263173	1048.017807637175	1344.563757519297	457.522867400564	953.226993958184	1414.112619253646	627.352665231741	938.818218974266	1482.029343210832	452.113277697597	965.798663076077	928.991546975550	575.238704647039	971.953077470703	947.449643177297	301.449642471654	1019.370464252076	736.220760993690	558.705305233600	948.304002430003	625.856503232432	627.515141312524	1034.864780974596	568.227570891085	557.097423996633	1029.156646947368	457.303002184407	583.579019098276	1024.209252390331	740.235380590928	345.839625288017	944.135427482222	614.600031577673	291.703011916080	1027.802347386439	543.946004870899	366.243037528635	1029.641650669809	469.572959241944	378.819113238098	986.962082663526	397.122920318126	373.206999237870	882.520177503660	296.898890421246	321.841440761310	905.972404047236	182.818827587264	398.776731820882	944.207785952853	394.132289689259	589.636554080506	815.835277517681	371.533425449049	645.450094671118	792.416730360383	261.506944680545	600.964245339078	584.405607132815	217.367660733322	564.934874180861	746.419258672111	146.795518253383	617.354489013681	634.357511862615	154.869715776866	643.177389643853	802.444313736690	33.083208864002	650.525224774208	754.253919454754	40.242887362810	437.890146008820	829.244154661538	36.722914054165	358.928578533074	914.108216508417	95.284634848351	387.693247117823	1041.238231361261	39.360700863299	358.221603227152	990.491721721222	1101.408509464860	120.237243560794	1154.274871789969	896.171173737237	122.893255905898	896.657002401937	1062.158000935284	722.149141464633	949.260496706613	812.818690592427	760.954609719877	
7	42.348857142857	744.288691633404	999.104743792239	440.407502078397	967.346902657929	1427.183277856009	292.364748975855	1047.866357410919	1344.683369455278	459.332077349120	950.217728980675	1414.274635230417	627.626184153934	939.495023464655	1482.475752411385	452.350070074387	962.957667477058	930.196228501445	575.399368126423	971.985449098615	947.699656017264	301.620155014149	1021.640055441302	740.752845932571	557.613402551657	954.645090796139	628.341753968740	626.480200443985	1042.631399703272	573.113877692243	555.732201292289	1039.984339715360	461.534290433578	582.268646749707	1022.050056281103	739.282580949135	345.603932197939	940.734075540763	614.640323180186	291.335087551569	1023.127931298492	543.234320174317	366.371520899553	1024.206935297043	469.223875289753	379.189734592894	981.550725834119	397.017810518057	373.256917151924	877.314589119260	296.776598690878	321.489381245662	900.378404396011	182.749387163947	398.695785441349	955.479267072480	397.029318341089	588.158133549712	826.798350749927	373.318310767082	643.342384448171	804.381432144734	263.061159618401	598.785865208588	596.630627684487	217.072370881081	562.019096272705	759.360965767623	148.220260174591	614.968445094648	647.079207087678	155.249044763488	640.602455402302	816.421685709518	33.980993406778	648.706588807340	748.536273442708	40.148059498344	437.696374679818	823.601225391358	36.616246439793	358.751241177287	908.446716576153	95.244134884478	387.554666365600	1035.615456549725	39.372279694019	358.186120281561	1001.285137557245	1103.590347254266	119.444589718958	1174.730951505835	906.358736161069	124.202152714475	876.230579338873	1063.911472911352	717.621901305416	911.912376318697	810.160385418237	752.097567563560	
